<?xml version="1.0" standalone="no"?>
<!DOCTYPE svg PUBLIC "-//W3C//DTD SVG 20010904//EN"
 "http://www.w3.org/TR/2001/REC-SVG-20010904/DTD/svg10.dtd">
<svg version="1.0" xmlns="http://www.w3.org/2000/svg"
 width="345.000000pt" height="409.000000pt" viewBox="0 0 345.000000 409.000000"
 preserveAspectRatio="xMidYMid meet">

<g transform="translate(0.000000,409.000000) scale(0.100000,-0.100000)"
fill="#000000" stroke="none">
<path d="M1725 3843 c-119 -17 -287 -75 -415 -145 -365 -199 -568 -461 -736
-951 -77 -225 -79 -250 -76 -757 3 -694 49 -1177 129 -1380 61 -152 138 -220
253 -220 64 0 70 13 42 97 l-21 65 34 14 c19 8 41 14 49 14 8 0 22 8 31 17 15
14 16 29 10 95 -7 88 3 101 29 34 9 -24 31 -61 50 -81 l32 -39 105 13 c57 7
107 15 111 17 5 3 8 17 8 32 l0 26 28 -32 27 -32 233 -12 c186 -9 235 -9 242
1 4 7 10 42 13 79 9 96 23 96 31 0 4 -46 11 -87 16 -92 5 -5 55 -17 112 -27
307 -54 299 -51 358 -98 30 -23 89 -60 131 -82 43 -21 80 -43 84 -49 11 -17
78 -11 113 10 39 24 74 93 96 190 22 93 80 658 91 890 9 176 42 537 60 650 9
52 20 169 25 259 6 109 14 171 24 185 22 34 27 120 16 253 -27 331 -121 558
-309 750 -152 156 -379 257 -560 252 -46 -1 -83 5 -122 19 -95 36 -235 50
-344 35z m709 -847 c185 -139 262 -240 320 -421 45 -143 50 -191 37 -343 -30
-347 -64 -520 -126 -642 -59 -116 -297 -316 -440 -369 -145 -54 -386 -54 -535
2 -30 11 -57 23 -60 26 -3 3 -21 15 -40 25 -19 10 -44 27 -56 38 -11 10 -24
15 -29 11 -4 -5 -6 -3 -2 2 3 6 -20 28 -51 50 -135 93 -277 239 -356 364 -36
57 -68 113 -72 125 -4 11 -15 28 -25 37 -10 9 -16 18 -13 21 3 3 -9 16 -25 28
-31 21 -66 24 -66 5 0 -18 -16 -35 -31 -35 -8 0 -22 16 -31 35 -16 34 -16 40
6 133 13 53 34 121 48 151 30 65 94 137 131 146 92 23 186 95 372 288 80 82
172 169 206 193 130 93 308 157 523 189 57 9 111 20 120 26 34 20 80 0 195
-85z"/>
<path d="M1575 2623 c-51 -11 -117 -36 -130 -50 -27 -26 -6 -34 73 -27 66 5
97 1 210 -26 125 -30 134 -31 157 -16 31 20 32 43 3 56 -27 11 -165 45 -223
55 -22 3 -47 8 -55 9 -8 2 -24 1 -35 -1z"/>
<path d="M2426 2497 c-11 -8 -17 -23 -14 -38 3 -24 4 -24 131 -27 96 -2 135
-7 152 -18 26 -17 45 -12 45 11 0 8 -14 30 -31 50 l-31 35 -117 0 c-81 0 -123
-4 -135 -13z"/>
<path d="M1501 2369 c-46 -9 -119 -47 -141 -74 -22 -27 -5 -26 45 1 l47 27 -8
-24 c-5 -13 -9 -42 -9 -64 0 -37 3 -41 45 -62 25 -12 68 -27 96 -34 42 -9 55
-9 79 4 27 13 31 13 42 -2 12 -15 15 -14 33 8 11 13 20 35 20 50 0 14 4 32 8
39 9 14 33 -8 75 -71 15 -23 28 -34 32 -28 20 33 -43 136 -111 183 -41 28
-140 59 -184 57 -14 -1 -45 -5 -69 -10z m59 -44 c20 -25 8 -50 -25 -50 -21 0
-31 5 -33 18 -4 21 14 47 33 47 7 0 18 -7 25 -15z"/>
<path d="M2479 2271 c-38 -12 -69 -29 -126 -72 -97 -73 -89 -101 38 -129 72
-16 86 -17 109 -5 23 12 29 12 42 -2 15 -14 18 -13 33 10 22 34 30 98 17 136
-6 17 -8 31 -5 31 20 0 88 -50 105 -78 26 -42 48 -29 29 16 -33 79 -145 122
-242 93z"/>
<path d="M2160 1774 c-14 -8 -45 -13 -70 -12 -33 2 -45 -1 -45 -12 0 -14 32
-27 72 -29 22 -1 83 43 83 60 0 12 -10 10 -40 -7z"/>
<path d="M1783 1592 c8 -12 183 -45 203 -38 8 3 14 2 14 -3 0 -17 264 -21 281
-4 15 15 -11 19 -226 33 -93 6 -194 14 -224 17 -36 4 -52 2 -48 -5z"/>
</g>
</svg>
